<svg width="1920" height="1348" viewBox="0 0 1920 1348" fill="none" xmlns="http://www.w3.org/2000/svg">
<rect width="1920" height="1348" fill="#E5E5E5"/>
<g clip-path="url(#clip0)">
<rect width="1920" height="1348" fill="#3A3A3A"/>
<path d="M286.484 336.109C282.057 340.901 276.615 344.521 270.156 346.969C263.75 349.365 256.719 350.562 249.062 350.562C235.99 350.562 225.833 346.526 218.594 338.453C211.354 330.328 207.63 318.531 207.422 303.062V282.594C207.422 266.917 210.833 254.859 217.656 246.422C224.531 237.932 234.531 233.688 247.656 233.688C260 233.688 269.297 236.734 275.547 242.828C281.849 248.922 285.495 258.479 286.484 271.5H264.141C263.516 264.26 262.005 259.339 259.609 256.734C257.214 254.078 253.464 252.75 248.359 252.75C242.161 252.75 237.656 255.016 234.844 259.547C232.031 264.078 230.573 271.292 230.469 281.188V301.812C230.469 312.177 232.005 319.729 235.078 324.469C238.203 329.156 243.307 331.5 250.391 331.5C254.922 331.5 258.594 330.589 261.406 328.766L263.438 327.359V306.5H247.344V289.156H286.484V336.109ZM324.844 349H302.656V264.469H324.844V349ZM301.641 242.594C301.641 239.156 302.734 236.344 304.922 234.156C307.109 231.969 310.026 230.875 313.672 230.875C317.318 230.875 320.234 231.969 322.422 234.156C324.609 236.344 325.703 239.156 325.703 242.594C325.703 245.979 324.609 248.792 322.422 251.031C320.286 253.271 317.37 254.391 313.672 254.391C309.974 254.391 307.031 253.271 304.844 251.031C302.708 248.792 301.641 245.979 301.641 242.594ZM367.656 243.688V264.469H378.984V281.109H367.656V323.062C367.656 326.396 368.099 328.688 368.984 329.938C369.922 331.188 371.693 331.812 374.297 331.812C376.432 331.812 378.177 331.63 379.531 331.266L379.375 348.453C375.625 349.859 371.562 350.562 367.188 350.562C352.917 350.562 345.703 342.385 345.547 326.031V281.109H335.781V264.469H345.547V243.688H367.656ZM472.031 349H449.141V300.328H415.234V349H392.266V235.25H415.234V281.266H449.141V235.25H472.031V349ZM531.016 341.266C526.432 347.464 520.286 350.562 512.578 350.562C504.818 350.562 498.932 347.906 494.922 342.594C490.911 337.229 488.906 329.443 488.906 319.234V264.469H511.016V319.781C511.12 328.01 513.854 332.125 519.219 332.125C524.271 332.125 527.917 329.938 530.156 325.562V264.469H552.422V349H531.641L531.016 341.266ZM634.141 309.469C634.141 323.167 631.953 333.453 627.578 340.328C623.203 347.151 616.328 350.562 606.953 350.562C599.609 350.562 593.724 347.255 589.297 340.641L588.594 349H568.203V229H590.312V271.344C594.479 265.719 599.974 262.906 606.797 262.906C616.172 262.906 623.047 266.318 627.422 273.141C631.797 279.911 634.036 289.859 634.141 302.984V309.469ZM612.031 303.922C612.031 295.016 611.172 289.052 609.453 286.031C607.734 282.958 604.74 281.422 600.469 281.422C595.833 281.422 592.448 283.531 590.312 287.75V326.266C592.292 330.224 595.729 332.203 600.625 332.203C604.844 332.203 607.76 330.823 609.375 328.062C611.042 325.302 611.927 319.938 612.031 311.969V303.922ZM744.141 299.781H708.359V329.938H750.703V349H685.391V235.25H750.547V254.391H708.359V281.266H744.141V299.781ZM791.172 289.547L801.016 264.469H824.453L805.156 305.797L825.156 349H801.641L791.25 322.516L780.938 349H757.344L777.344 305.797L758.203 264.469H781.719L791.172 289.547ZM901.25 309.391C901.25 322.672 898.958 332.854 894.375 339.938C889.844 347.021 883.073 350.562 874.062 350.562C867.188 350.562 861.667 347.776 857.5 342.203V381.5H835.391V264.469H855.859L856.641 272.203C860.859 266.005 866.615 262.906 873.906 262.906C882.917 262.906 889.688 266.188 894.219 272.75C898.802 279.312 901.146 289.365 901.25 302.906V309.391ZM879.219 303.844C879.219 295.667 878.307 289.885 876.484 286.5C874.714 283.115 871.693 281.422 867.422 281.422C862.891 281.422 859.583 283.323 857.5 287.125V326.734C859.479 330.38 862.839 332.203 867.578 332.203C871.953 332.203 874.974 330.354 876.641 326.656C878.359 322.958 879.219 317.203 879.219 309.391V303.844ZM937.812 349H915.625V229H937.812V349ZM952.344 304C952.344 291.188 955.365 281.135 961.406 273.844C967.448 266.552 975.807 262.906 986.484 262.906C997.266 262.906 1005.68 266.552 1011.72 273.844C1017.76 281.135 1020.78 291.24 1020.78 304.156V309.547C1020.78 322.411 1017.79 332.464 1011.8 339.703C1005.81 346.943 997.422 350.562 986.641 350.562C975.807 350.562 967.37 346.943 961.328 339.703C955.339 332.411 952.344 322.307 952.344 309.391V304ZM974.531 309.547C974.531 324.651 978.568 332.203 986.641 332.203C994.089 332.203 998.099 325.901 998.672 313.297L998.75 304C998.75 296.292 997.682 290.589 995.547 286.891C993.411 283.141 990.391 281.266 986.484 281.266C982.734 281.266 979.792 283.141 977.656 286.891C975.573 290.589 974.531 296.292 974.531 304V309.547ZM1076.33 285.797L1068.98 285.172C1062.94 285.172 1058.85 287.828 1056.72 293.141V349H1034.53V264.469H1055.39L1056.02 273.609C1059.51 266.474 1064.32 262.906 1070.47 262.906C1072.97 262.906 1075 263.245 1076.56 263.922L1076.33 285.797ZM1120.31 350.562C1108.96 350.562 1100.1 347.177 1093.75 340.406C1087.4 333.635 1084.22 323.948 1084.22 311.344V304.625C1084.22 291.292 1087.14 281.005 1092.97 273.766C1098.8 266.526 1107.16 262.906 1118.05 262.906C1128.67 262.906 1136.67 266.318 1142.03 273.141C1147.4 279.911 1150.13 289.964 1150.23 303.297V314.156H1106.25C1106.56 320.406 1107.94 324.99 1110.39 327.906C1112.84 330.771 1116.61 332.203 1121.72 332.203C1129.11 332.203 1135.29 329.677 1140.23 324.625L1148.91 337.984C1146.2 341.734 1142.27 344.781 1137.11 347.125C1131.95 349.417 1126.35 350.562 1120.31 350.562ZM1106.41 298.688H1128.52V296.656C1128.41 291.604 1127.58 287.776 1126.02 285.172C1124.45 282.568 1121.74 281.266 1117.89 281.266C1114.04 281.266 1111.22 282.646 1109.45 285.406C1107.73 288.167 1106.72 292.594 1106.41 298.688ZM1204.45 285.797L1197.11 285.172C1191.07 285.172 1186.98 287.828 1184.84 293.141V349H1162.66V264.469H1183.52L1184.14 273.609C1187.63 266.474 1192.45 262.906 1198.59 262.906C1201.09 262.906 1203.12 263.245 1204.69 263.922L1204.45 285.797Z" fill="white"/>
<g clip-path="url(#clip1)">
<rect x="240" y="722" width="1440" height="820" rx="20" fill="#F0F0F5"/>
<path opacity="0.05" d="M1114 701C865.375 701 664 898.882 664 1142.94C664 1338.23 792.925 1503.85 971.688 1562.24C994.188 1566.4 1002.44 1552.72 1002.44 1540.99C1002.44 1530.49 1002.06 1502.69 1001.88 1465.85C876.7 1492.49 850.3 1406.56 850.3 1406.56C829.825 1355.55 800.238 1341.91 800.238 1341.91C759.475 1314.51 803.387 1315.07 803.387 1315.07C848.575 1318.15 872.312 1360.61 872.312 1360.61C912.438 1428.18 977.65 1408.65 1003.37 1397.37C1007.42 1368.78 1019.01 1349.33 1031.88 1338.27C931.937 1327.22 826.9 1289.21 826.9 1119.89C826.9 1071.66 844.338 1032.23 873.212 1001.31C868.15 990.141 852.962 945.204 877.15 884.341C877.15 884.341 914.837 872.498 1000.9 929.652C1036.9 919.832 1075.15 914.96 1113.4 914.735C1151.65 914.96 1189.9 919.832 1225.9 929.652C1311.4 872.498 1349.09 884.341 1349.09 884.341C1373.27 945.204 1358.09 990.141 1353.59 1001.31C1382.27 1032.23 1399.71 1071.66 1399.71 1119.89C1399.71 1289.66 1294.52 1327.03 1194.4 1337.9C1210.15 1351.16 1224.77 1378.26 1224.77 1419.67C1224.77 1478.81 1224.21 1526.33 1224.21 1540.69C1224.21 1552.27 1232.09 1566.1 1255.15 1561.68C1435.19 1503.66 1564 1337.93 1564 1142.94C1564 898.882 1362.51 701 1114 701Z" fill="url(#paint0_linear)"/>
<path d="M404.32 1022V984.578H429.592V991.652H412.744V998.996H427.702V1005.91H412.744V1014.93H430.834V1022H404.32ZM448.974 1002.24L454.59 993.596H462.906L453.186 1007.26C455.346 1009.96 457.308 1012.59 459.072 1015.14C460.836 1017.7 462.24 1019.98 463.284 1022H454.644C454.356 1021.46 453.996 1020.79 453.564 1020C453.132 1019.17 452.646 1018.33 452.106 1017.46C451.566 1016.56 450.99 1015.68 450.378 1014.82C449.802 1013.92 449.226 1013.11 448.65 1012.39C448.11 1013.07 447.552 1013.83 446.976 1014.66C446.436 1015.48 445.914 1016.33 445.41 1017.19C444.906 1018.02 444.402 1018.85 443.898 1019.68C443.43 1020.51 443.016 1021.28 442.656 1022H434.448C434.88 1021.1 435.474 1020.04 436.23 1018.81C436.986 1017.59 437.796 1016.33 438.66 1015.03C439.56 1013.7 440.496 1012.39 441.468 1011.09C442.44 1009.76 443.394 1008.52 444.33 1007.37C442.71 1005.1 441.09 1002.81 439.47 1000.51C437.85 998.168 436.248 995.864 434.664 993.596H443.358L448.974 1002.24ZM485.787 1008.01C485.787 1005.53 485.229 1003.55 484.113 1002.07C482.997 1000.56 481.341 999.806 479.145 999.806C478.425 999.806 477.759 999.842 477.147 999.914C476.535 999.95 476.031 1000 475.635 1000.08V1014.6C476.139 1014.93 476.787 1015.2 477.579 1015.41C478.407 1015.63 479.235 1015.74 480.063 1015.74C483.879 1015.74 485.787 1013.16 485.787 1008.01ZM493.995 1007.8C493.995 1009.99 493.725 1011.99 493.185 1013.79C492.645 1015.59 491.853 1017.14 490.809 1018.44C489.765 1019.73 488.469 1020.74 486.921 1021.46C485.373 1022.18 483.591 1022.54 481.575 1022.54C480.459 1022.54 479.415 1022.43 478.443 1022.22C477.471 1022 476.535 1021.69 475.635 1021.3V1031.99H467.589V994.568C468.309 994.352 469.137 994.154 470.073 993.974C471.009 993.758 471.981 993.578 472.989 993.434C474.033 993.29 475.077 993.182 476.121 993.11C477.201 993.002 478.227 992.948 479.199 992.948C481.539 992.948 483.627 993.308 485.463 994.028C487.299 994.712 488.847 995.702 490.107 996.998C491.367 998.258 492.321 999.806 492.969 1001.64C493.653 1003.48 493.995 1005.53 493.995 1007.8ZM511.518 1022.54C509.178 1022.5 507.27 1022.25 505.794 1021.78C504.354 1021.32 503.202 1020.67 502.338 1019.84C501.51 1018.98 500.934 1017.95 500.61 1016.76C500.322 1015.54 500.178 1014.17 500.178 1012.66V981.392L508.224 980.096V1011.04C508.224 1011.76 508.278 1012.41 508.386 1012.98C508.494 1013.56 508.692 1014.04 508.98 1014.44C509.304 1014.84 509.754 1015.16 510.33 1015.41C510.906 1015.66 511.68 1015.83 512.652 1015.9L511.518 1022.54ZM543.832 1007.74C543.832 1009.98 543.508 1012.03 542.86 1013.9C542.212 1015.74 541.276 1017.32 540.052 1018.65C538.828 1019.95 537.352 1020.96 535.624 1021.68C533.932 1022.4 532.024 1022.76 529.9 1022.76C527.812 1022.76 525.904 1022.4 524.176 1021.68C522.484 1020.96 521.026 1019.95 519.802 1018.65C518.578 1017.32 517.624 1015.74 516.94 1013.9C516.256 1012.03 515.914 1009.98 515.914 1007.74C515.914 1005.51 516.256 1003.48 516.94 1001.64C517.66 999.806 518.632 998.24 519.856 996.944C521.116 995.648 522.592 994.64 524.284 993.92C526.012 993.2 527.884 992.84 529.9 992.84C531.952 992.84 533.824 993.2 535.516 993.92C537.244 994.64 538.72 995.648 539.944 996.944C541.168 998.24 542.122 999.806 542.806 1001.64C543.49 1003.48 543.832 1005.51 543.832 1007.74ZM535.624 1007.74C535.624 1005.26 535.12 1003.32 534.112 1001.91C533.14 1000.47 531.736 999.752 529.9 999.752C528.064 999.752 526.642 1000.47 525.634 1001.91C524.626 1003.32 524.122 1005.26 524.122 1007.74C524.122 1010.23 524.626 1012.21 525.634 1013.68C526.642 1015.12 528.064 1015.84 529.9 1015.84C531.736 1015.84 533.14 1015.12 534.112 1013.68C535.12 1012.21 535.624 1010.23 535.624 1007.74ZM567.183 1000.72C566.463 1000.54 565.617 1000.36 564.645 1000.18C563.673 999.968 562.629 999.86 561.513 999.86C561.009 999.86 560.397 999.914 559.677 1000.02C558.993 1000.09 558.471 1000.18 558.111 1000.29V1022H550.065V995.108C551.505 994.604 553.197 994.136 555.141 993.704C557.121 993.236 559.317 993.002 561.729 993.002C562.161 993.002 562.683 993.038 563.295 993.11C563.907 993.146 564.519 993.218 565.131 993.326C565.743 993.398 566.355 993.506 566.967 993.65C567.579 993.758 568.101 993.902 568.533 994.082L567.183 1000.72ZM570.969 1008.01C570.969 1005.49 571.347 1003.3 572.103 1001.43C572.895 999.518 573.921 997.934 575.181 996.674C576.441 995.414 577.881 994.46 579.501 993.812C581.157 993.164 582.849 992.84 584.577 992.84C588.609 992.84 591.795 994.082 594.135 996.566C596.475 999.014 597.645 1002.63 597.645 1007.42C597.645 1007.89 597.627 1008.41 597.591 1008.99C597.555 1009.53 597.519 1010.01 597.483 1010.44H579.231C579.411 1012.1 580.185 1013.41 581.553 1014.39C582.921 1015.36 584.757 1015.84 587.061 1015.84C588.537 1015.84 589.977 1015.72 591.381 1015.47C592.821 1015.18 593.991 1014.84 594.891 1014.44L595.971 1020.97C595.539 1021.19 594.963 1021.41 594.243 1021.62C593.523 1021.84 592.713 1022.02 591.813 1022.16C590.949 1022.34 590.013 1022.49 589.005 1022.59C587.997 1022.7 586.989 1022.76 585.981 1022.76C583.425 1022.76 581.193 1022.38 579.285 1021.62C577.413 1020.87 575.847 1019.84 574.587 1018.54C573.363 1017.21 572.445 1015.65 571.833 1013.85C571.257 1012.05 570.969 1010.1 570.969 1008.01ZM589.869 1004.94C589.833 1004.25 589.707 1003.59 589.491 1002.94C589.311 1002.29 589.005 1001.71 588.573 1001.21C588.177 1000.71 587.655 1000.29 587.007 999.968C586.395 999.644 585.621 999.482 584.685 999.482C583.785 999.482 583.011 999.644 582.363 999.968C581.715 1000.26 581.175 1000.65 580.743 1001.16C580.311 1001.66 579.969 1002.25 579.717 1002.94C579.501 1003.59 579.339 1004.25 579.231 1004.94H589.869ZM635.619 991.058C631.695 991.058 628.851 992.156 627.087 994.352C625.359 996.512 624.495 999.482 624.495 1003.26C624.495 1005.1 624.711 1006.77 625.143 1008.28C625.575 1009.76 626.223 1011.04 627.087 1012.12C627.951 1013.2 629.031 1014.04 630.327 1014.66C631.623 1015.23 633.135 1015.52 634.863 1015.52C635.799 1015.52 636.591 1015.5 637.239 1015.47C637.923 1015.43 638.517 1015.36 639.021 1015.25V1002.24H647.445V1020.76C646.437 1021.15 644.817 1021.57 642.585 1022C640.353 1022.47 637.599 1022.7 634.323 1022.7C631.515 1022.7 628.959 1022.27 626.655 1021.41C624.387 1020.54 622.443 1019.28 620.823 1017.63C619.203 1015.97 617.943 1013.94 617.043 1011.52C616.179 1009.11 615.747 1006.36 615.747 1003.26C615.747 1000.13 616.233 997.358 617.205 994.946C618.177 992.534 619.509 990.5 621.201 988.844C622.893 987.152 624.873 985.874 627.141 985.01C629.445 984.146 631.893 983.714 634.485 983.714C636.249 983.714 637.833 983.84 639.237 984.092C640.677 984.308 641.901 984.578 642.909 984.902C643.953 985.19 644.799 985.496 645.447 985.82C646.131 986.144 646.617 986.396 646.905 986.576L644.475 993.326C643.323 992.714 641.991 992.192 640.479 991.76C639.003 991.292 637.383 991.058 635.619 991.058ZM662.789 1022H654.743V993.596H662.789V1022ZM663.545 985.388C663.545 986.864 663.059 988.034 662.087 988.898C661.151 989.726 660.035 990.14 658.739 990.14C657.443 990.14 656.309 989.726 655.337 988.898C654.401 988.034 653.933 986.864 653.933 985.388C653.933 983.912 654.401 982.76 655.337 981.932C656.309 981.068 657.443 980.636 658.739 980.636C660.035 980.636 661.151 981.068 662.087 981.932C663.059 982.76 663.545 983.912 663.545 985.388ZM670.082 986.522L678.128 985.226V993.596H687.794V1000.29H678.128V1010.28C678.128 1011.97 678.416 1013.32 678.992 1014.33C679.604 1015.34 680.81 1015.84 682.61 1015.84C683.474 1015.84 684.356 1015.77 685.256 1015.63C686.192 1015.45 687.038 1015.21 687.794 1014.93L688.928 1021.19C687.956 1021.59 686.876 1021.93 685.688 1022.22C684.5 1022.5 683.042 1022.65 681.314 1022.65C679.118 1022.65 677.3 1022.36 675.86 1021.78C674.42 1021.17 673.268 1020.34 672.404 1019.3C671.54 1018.22 670.928 1016.92 670.568 1015.41C670.244 1013.9 670.082 1012.23 670.082 1010.39V986.522ZM717.458 984.578H725.882V1022H717.458V1006.12H703.31V1022H694.886V984.578H703.31V998.888H717.458V984.578ZM758.249 1021.03C756.881 1021.42 755.117 1021.78 752.957 1022.11C750.797 1022.47 748.529 1022.65 746.153 1022.65C743.741 1022.65 741.725 1022.32 740.105 1021.68C738.521 1021.03 737.261 1020.13 736.325 1018.98C735.389 1017.79 734.723 1016.38 734.327 1014.76C733.931 1013.14 733.733 1011.36 733.733 1009.42V993.596H741.779V1008.45C741.779 1011.04 742.121 1012.91 742.805 1014.06C743.489 1015.21 744.767 1015.79 746.639 1015.79C747.215 1015.79 747.827 1015.77 748.475 1015.74C749.123 1015.66 749.699 1015.59 750.203 1015.52V993.596H758.249V1021.03ZM783.999 1007.58C783.999 1002.4 782.091 999.806 778.275 999.806C777.447 999.806 776.619 999.914 775.791 1000.13C774.999 1000.35 774.351 1000.62 773.847 1000.94V1015.57C774.243 1015.65 774.747 1015.72 775.359 1015.79C775.971 1015.83 776.637 1015.84 777.357 1015.84C779.553 1015.84 781.209 1015.09 782.325 1013.58C783.441 1012.06 783.999 1010.07 783.999 1007.58ZM792.207 1007.8C792.207 1010.07 791.865 1012.12 791.181 1013.95C790.533 1015.79 789.579 1017.36 788.319 1018.65C787.059 1019.95 785.511 1020.96 783.675 1021.68C781.839 1022.36 779.751 1022.7 777.411 1022.7C776.439 1022.7 775.413 1022.65 774.333 1022.54C773.289 1022.47 772.245 1022.36 771.201 1022.22C770.193 1022.07 769.221 1021.91 768.285 1021.73C767.349 1021.51 766.521 1021.3 765.801 1021.08V981.392L773.847 980.096V994.244C774.747 993.848 775.683 993.542 776.655 993.326C777.627 993.11 778.671 993.002 779.787 993.002C781.803 993.002 783.585 993.362 785.133 994.082C786.681 994.766 787.977 995.756 789.021 997.052C790.065 998.348 790.857 999.914 791.397 1001.75C791.937 1003.55 792.207 1005.57 792.207 1007.8ZM415.282 1048.15C420.898 1048.15 425.2 1049.15 428.188 1051.17C431.176 1053.15 432.67 1056.25 432.67 1060.46C432.67 1063.09 432.058 1065.23 430.834 1066.88C429.646 1068.5 427.918 1069.78 425.65 1070.72C426.406 1071.65 427.198 1072.73 428.026 1073.96C428.854 1075.15 429.664 1076.41 430.456 1077.74C431.284 1079.03 432.076 1080.4 432.832 1081.84C433.588 1083.25 434.29 1084.63 434.938 1086H425.488C424.804 1084.78 424.102 1083.53 423.382 1082.27C422.698 1081.01 421.978 1079.79 421.222 1078.6C420.502 1077.41 419.782 1076.3 419.062 1075.25C418.342 1074.17 417.622 1073.2 416.902 1072.34H412.744V1086H404.32V1049.12C406.156 1048.76 408.046 1048.51 409.99 1048.36C411.97 1048.22 413.734 1048.15 415.282 1048.15ZM415.768 1055.33C415.156 1055.33 414.598 1055.35 414.094 1055.38C413.626 1055.42 413.176 1055.45 412.744 1055.49V1065.64H415.12C418.288 1065.64 420.556 1065.25 421.924 1064.45C423.292 1063.66 423.976 1062.31 423.976 1060.4C423.976 1058.57 423.274 1057.27 421.87 1056.52C420.502 1055.72 418.468 1055.33 415.768 1055.33ZM437.076 1072.01C437.076 1069.49 437.454 1067.3 438.21 1065.43C439.002 1063.52 440.028 1061.93 441.288 1060.67C442.548 1059.41 443.988 1058.46 445.608 1057.81C447.264 1057.16 448.956 1056.84 450.684 1056.84C454.716 1056.84 457.902 1058.08 460.242 1060.57C462.582 1063.01 463.752 1066.63 463.752 1071.42C463.752 1071.89 463.734 1072.41 463.698 1072.99C463.662 1073.53 463.626 1074.01 463.59 1074.44H445.338C445.518 1076.1 446.292 1077.41 447.66 1078.39C449.028 1079.36 450.864 1079.84 453.168 1079.84C454.644 1079.84 456.084 1079.72 457.488 1079.47C458.928 1079.18 460.098 1078.84 460.998 1078.44L462.078 1084.97C461.646 1085.19 461.07 1085.41 460.35 1085.62C459.63 1085.84 458.82 1086.02 457.92 1086.16C457.056 1086.34 456.12 1086.49 455.112 1086.59C454.104 1086.7 453.096 1086.76 452.088 1086.76C449.532 1086.76 447.3 1086.38 445.392 1085.62C443.52 1084.87 441.954 1083.84 440.694 1082.54C439.47 1081.21 438.552 1079.65 437.94 1077.85C437.364 1076.05 437.076 1074.1 437.076 1072.01ZM455.976 1068.94C455.94 1068.25 455.814 1067.59 455.598 1066.94C455.418 1066.29 455.112 1065.71 454.68 1065.21C454.284 1064.71 453.762 1064.29 453.114 1063.97C452.502 1063.64 451.728 1063.48 450.792 1063.48C449.892 1063.48 449.118 1063.64 448.47 1063.97C447.822 1064.26 447.282 1064.65 446.85 1065.16C446.418 1065.66 446.076 1066.25 445.824 1066.94C445.608 1067.59 445.446 1068.25 445.338 1068.94H455.976ZM488.16 1072.01C488.16 1069.53 487.602 1067.55 486.486 1066.07C485.37 1064.56 483.714 1063.81 481.518 1063.81C480.798 1063.81 480.132 1063.84 479.52 1063.91C478.908 1063.95 478.404 1064 478.008 1064.08V1078.6C478.512 1078.93 479.16 1079.2 479.952 1079.41C480.78 1079.63 481.608 1079.74 482.436 1079.74C486.252 1079.74 488.16 1077.16 488.16 1072.01ZM496.368 1071.8C496.368 1073.99 496.098 1075.99 495.558 1077.79C495.018 1079.59 494.226 1081.14 493.182 1082.44C492.138 1083.73 490.842 1084.74 489.294 1085.46C487.746 1086.18 485.964 1086.54 483.948 1086.54C482.832 1086.54 481.788 1086.43 480.816 1086.22C479.844 1086 478.908 1085.69 478.008 1085.3V1095.99H469.962V1058.57C470.682 1058.35 471.51 1058.15 472.446 1057.97C473.382 1057.76 474.354 1057.58 475.362 1057.43C476.406 1057.29 477.45 1057.18 478.494 1057.11C479.574 1057 480.6 1056.95 481.572 1056.95C483.912 1056.95 486 1057.31 487.836 1058.03C489.672 1058.71 491.22 1059.7 492.48 1061C493.74 1062.26 494.694 1063.81 495.342 1065.64C496.026 1067.48 496.368 1069.53 496.368 1071.8ZM529.119 1071.74C529.119 1073.98 528.795 1076.03 528.147 1077.9C527.499 1079.74 526.563 1081.32 525.339 1082.65C524.115 1083.95 522.639 1084.96 520.911 1085.68C519.219 1086.4 517.311 1086.76 515.187 1086.76C513.099 1086.76 511.191 1086.4 509.463 1085.68C507.771 1084.96 506.313 1083.95 505.089 1082.65C503.865 1081.32 502.911 1079.74 502.227 1077.9C501.543 1076.03 501.201 1073.98 501.201 1071.74C501.201 1069.51 501.543 1067.48 502.227 1065.64C502.947 1063.81 503.919 1062.24 505.143 1060.94C506.403 1059.65 507.879 1058.64 509.571 1057.92C511.299 1057.2 513.171 1056.84 515.187 1056.84C517.239 1056.84 519.111 1057.2 520.803 1057.92C522.531 1058.64 524.007 1059.65 525.231 1060.94C526.455 1062.24 527.409 1063.81 528.093 1065.64C528.777 1067.48 529.119 1069.51 529.119 1071.74ZM520.911 1071.74C520.911 1069.26 520.407 1067.32 519.399 1065.91C518.427 1064.47 517.023 1063.75 515.187 1063.75C513.351 1063.75 511.929 1064.47 510.921 1065.91C509.913 1067.32 509.409 1069.26 509.409 1071.74C509.409 1074.23 509.913 1076.21 510.921 1077.68C511.929 1079.12 513.351 1079.84 515.187 1079.84C517.023 1079.84 518.427 1079.12 519.399 1077.68C520.407 1076.21 520.911 1074.23 520.911 1071.74ZM543.506 1080.22C544.982 1080.22 546.026 1080.08 546.638 1079.79C547.25 1079.5 547.556 1078.94 547.556 1078.12C547.556 1077.47 547.16 1076.91 546.368 1076.44C545.576 1075.94 544.37 1075.38 542.75 1074.77C541.49 1074.3 540.338 1073.81 539.294 1073.31C538.286 1072.81 537.422 1072.21 536.702 1071.53C535.982 1070.81 535.424 1069.96 535.028 1068.99C534.632 1068.02 534.434 1066.85 534.434 1065.48C534.434 1062.82 535.424 1060.71 537.404 1059.16C539.384 1057.61 542.102 1056.84 545.558 1056.84C547.286 1056.84 548.942 1057 550.526 1057.33C552.11 1057.61 553.37 1057.94 554.306 1058.3L552.902 1064.56C551.966 1064.24 550.94 1063.95 549.824 1063.7C548.744 1063.45 547.52 1063.32 546.152 1063.32C543.632 1063.32 542.372 1064.02 542.372 1065.43C542.372 1065.75 542.426 1066.04 542.534 1066.29C542.642 1066.54 542.858 1066.79 543.182 1067.05C543.506 1067.26 543.938 1067.51 544.478 1067.8C545.054 1068.05 545.774 1068.34 546.638 1068.67C548.402 1069.31 549.86 1069.96 551.012 1070.61C552.164 1071.22 553.064 1071.91 553.712 1072.66C554.396 1073.38 554.864 1074.19 555.116 1075.09C555.404 1075.99 555.548 1077.04 555.548 1078.22C555.548 1081.03 554.486 1083.16 552.362 1084.6C550.274 1086.04 547.304 1086.76 543.452 1086.76C540.932 1086.76 538.826 1086.54 537.134 1086.11C535.478 1085.68 534.326 1085.32 533.678 1085.03L535.028 1078.49C536.396 1079.03 537.8 1079.47 539.24 1079.79C540.68 1080.08 542.102 1080.22 543.506 1080.22ZM569.607 1086H561.561V1057.6H569.607V1086ZM570.363 1049.39C570.363 1050.86 569.877 1052.03 568.905 1052.9C567.969 1053.73 566.853 1054.14 565.557 1054.14C564.261 1054.14 563.127 1053.73 562.155 1052.9C561.219 1052.03 560.751 1050.86 560.751 1049.39C560.751 1047.91 561.219 1046.76 562.155 1045.93C563.127 1045.07 564.261 1044.64 565.557 1044.64C566.853 1044.64 567.969 1045.07 568.905 1045.93C569.877 1046.76 570.363 1047.91 570.363 1049.39ZM576.901 1050.52L584.947 1049.23V1057.6H594.613V1064.29H584.947V1074.28C584.947 1075.97 585.235 1077.32 585.811 1078.33C586.423 1079.34 587.629 1079.84 589.429 1079.84C590.293 1079.84 591.175 1079.77 592.075 1079.63C593.011 1079.45 593.857 1079.21 594.613 1078.93L595.747 1085.19C594.775 1085.59 593.695 1085.93 592.507 1086.22C591.319 1086.5 589.861 1086.65 588.133 1086.65C585.937 1086.65 584.119 1086.36 582.679 1085.78C581.239 1085.17 580.087 1084.34 579.223 1083.3C578.359 1082.22 577.747 1080.92 577.387 1079.41C577.063 1077.9 576.901 1076.23 576.901 1074.39V1050.52ZM626.678 1071.74C626.678 1073.98 626.354 1076.03 625.706 1077.9C625.058 1079.74 624.122 1081.32 622.898 1082.65C621.674 1083.95 620.198 1084.96 618.47 1085.68C616.778 1086.4 614.87 1086.76 612.746 1086.76C610.658 1086.76 608.75 1086.4 607.022 1085.68C605.33 1084.96 603.872 1083.95 602.648 1082.65C601.424 1081.32 600.47 1079.74 599.786 1077.9C599.102 1076.03 598.76 1073.98 598.76 1071.74C598.76 1069.51 599.102 1067.48 599.786 1065.64C600.506 1063.81 601.478 1062.24 602.702 1060.94C603.962 1059.65 605.438 1058.64 607.13 1057.92C608.858 1057.2 610.73 1056.84 612.746 1056.84C614.798 1056.84 616.67 1057.2 618.362 1057.92C620.09 1058.64 621.566 1059.65 622.79 1060.94C624.014 1062.24 624.968 1063.81 625.652 1065.64C626.336 1067.48 626.678 1069.51 626.678 1071.74ZM618.47 1071.74C618.47 1069.26 617.966 1067.32 616.958 1065.91C615.986 1064.47 614.582 1063.75 612.746 1063.75C610.91 1063.75 609.488 1064.47 608.48 1065.91C607.472 1067.32 606.968 1069.26 606.968 1071.74C606.968 1074.23 607.472 1076.21 608.48 1077.68C609.488 1079.12 610.91 1079.84 612.746 1079.84C614.582 1079.84 615.986 1079.12 616.958 1077.68C617.966 1076.21 618.47 1074.23 618.47 1071.74ZM650.029 1064.72C649.309 1064.54 648.463 1064.36 647.491 1064.18C646.519 1063.97 645.475 1063.86 644.359 1063.86C643.855 1063.86 643.243 1063.91 642.523 1064.02C641.839 1064.09 641.317 1064.18 640.957 1064.29V1086H632.911V1059.11C634.351 1058.6 636.043 1058.14 637.987 1057.7C639.967 1057.24 642.163 1057 644.575 1057C645.007 1057 645.529 1057.04 646.141 1057.11C646.753 1057.15 647.365 1057.22 647.977 1057.33C648.589 1057.4 649.201 1057.51 649.813 1057.65C650.425 1057.76 650.947 1057.9 651.379 1058.08L650.029 1064.72ZM663.738 1086H655.692V1057.6H663.738V1086ZM664.494 1049.39C664.494 1050.86 664.008 1052.03 663.036 1052.9C662.1 1053.73 660.984 1054.14 659.688 1054.14C658.392 1054.14 657.258 1053.73 656.286 1052.9C655.35 1052.03 654.882 1050.86 654.882 1049.39C654.882 1047.91 655.35 1046.76 656.286 1045.93C657.258 1045.07 658.392 1044.64 659.688 1044.64C660.984 1044.64 662.1 1045.07 663.036 1045.93C664.008 1046.76 664.494 1047.91 664.494 1049.39ZM669.951 1072.01C669.951 1069.49 670.329 1067.3 671.085 1065.43C671.877 1063.52 672.903 1061.93 674.163 1060.67C675.423 1059.41 676.863 1058.46 678.483 1057.81C680.139 1057.16 681.831 1056.84 683.559 1056.84C687.591 1056.84 690.777 1058.08 693.117 1060.57C695.457 1063.01 696.627 1066.63 696.627 1071.42C696.627 1071.89 696.609 1072.41 696.573 1072.99C696.537 1073.53 696.501 1074.01 696.465 1074.44H678.213C678.393 1076.1 679.167 1077.41 680.535 1078.39C681.903 1079.36 683.739 1079.84 686.043 1079.84C687.519 1079.84 688.959 1079.72 690.363 1079.47C691.803 1079.18 692.973 1078.84 693.873 1078.44L694.953 1084.97C694.521 1085.19 693.945 1085.41 693.225 1085.62C692.505 1085.84 691.695 1086.02 690.795 1086.16C689.931 1086.34 688.995 1086.49 687.987 1086.59C686.979 1086.7 685.971 1086.76 684.963 1086.76C682.407 1086.76 680.175 1086.38 678.267 1085.62C676.395 1084.87 674.829 1083.84 673.569 1082.54C672.345 1081.21 671.427 1079.65 670.815 1077.85C670.239 1076.05 669.951 1074.1 669.951 1072.01ZM688.851 1068.94C688.815 1068.25 688.689 1067.59 688.473 1066.94C688.293 1066.29 687.987 1065.71 687.555 1065.21C687.159 1064.71 686.637 1064.29 685.989 1063.97C685.377 1063.64 684.603 1063.48 683.667 1063.48C682.767 1063.48 681.993 1063.64 681.345 1063.97C680.697 1064.26 680.157 1064.65 679.725 1065.16C679.293 1065.66 678.951 1066.25 678.699 1066.94C678.483 1067.59 678.321 1068.25 678.213 1068.94H688.851ZM710.991 1080.22C712.467 1080.22 713.511 1080.08 714.123 1079.79C714.735 1079.5 715.041 1078.94 715.041 1078.12C715.041 1077.47 714.645 1076.91 713.853 1076.44C713.061 1075.94 711.855 1075.38 710.235 1074.77C708.975 1074.3 707.823 1073.81 706.779 1073.31C705.771 1072.81 704.907 1072.21 704.187 1071.53C703.467 1070.81 702.909 1069.96 702.513 1068.99C702.117 1068.02 701.919 1066.85 701.919 1065.48C701.919 1062.82 702.909 1060.71 704.889 1059.16C706.869 1057.61 709.587 1056.84 713.043 1056.84C714.771 1056.84 716.427 1057 718.011 1057.33C719.595 1057.61 720.855 1057.94 721.791 1058.3L720.387 1064.56C719.451 1064.24 718.425 1063.95 717.309 1063.7C716.229 1063.45 715.005 1063.32 713.637 1063.32C711.117 1063.32 709.857 1064.02 709.857 1065.43C709.857 1065.75 709.911 1066.04 710.019 1066.29C710.127 1066.54 710.343 1066.79 710.667 1067.05C710.991 1067.26 711.423 1067.51 711.963 1067.8C712.539 1068.05 713.259 1068.34 714.123 1068.67C715.887 1069.31 717.345 1069.96 718.497 1070.61C719.649 1071.22 720.549 1071.91 721.197 1072.66C721.881 1073.38 722.349 1074.19 722.601 1075.09C722.889 1075.99 723.033 1077.04 723.033 1078.22C723.033 1081.03 721.971 1083.16 719.847 1084.6C717.759 1086.04 714.789 1086.76 710.937 1086.76C708.417 1086.76 706.311 1086.54 704.619 1086.11C702.963 1085.68 701.811 1085.32 701.163 1085.03L702.513 1078.49C703.881 1079.03 705.285 1079.47 706.725 1079.79C708.165 1080.08 709.587 1080.22 710.991 1080.22Z" fill="#3A3A3A"/>
<rect x="400" y="1132" width="832" height="80" rx="8" fill="white"/>
<path d="M1060 1132H1224.14C1228.56 1132 1232.14 1135.58 1232.14 1140V1204C1232.14 1208.42 1228.56 1212 1224.14 1212H1060V1132Z" fill="#04D361"/>
<path d="M433.859 1172.07H429.359V1175.12H434.641V1177H427.016V1165.62H434.625V1167.52H429.359V1170.23H433.859V1172.07ZM437.945 1168.55L438.016 1169.52C438.62 1168.77 439.43 1168.39 440.445 1168.39C441.341 1168.39 442.008 1168.65 442.445 1169.18C442.883 1169.71 443.107 1170.49 443.117 1171.54V1177H440.859V1171.59C440.859 1171.11 440.755 1170.77 440.547 1170.55C440.339 1170.34 439.992 1170.23 439.508 1170.23C438.872 1170.23 438.396 1170.5 438.078 1171.04V1177H435.82V1168.55H437.945ZM447.539 1166.47V1168.55H448.984V1170.2H447.539V1174.42C447.539 1174.73 447.599 1174.96 447.719 1175.09C447.839 1175.23 448.068 1175.3 448.406 1175.3C448.656 1175.3 448.878 1175.28 449.07 1175.24V1176.95C448.628 1177.09 448.172 1177.16 447.703 1177.16C446.12 1177.16 445.312 1176.36 445.281 1174.76V1170.2H444.047V1168.55H445.281V1166.47H447.539ZM454.133 1177.16C452.893 1177.16 451.883 1176.78 451.102 1176.02C450.326 1175.26 449.938 1174.24 449.938 1172.98V1172.76C449.938 1171.91 450.102 1171.15 450.43 1170.48C450.758 1169.81 451.221 1169.3 451.82 1168.94C452.424 1168.57 453.112 1168.39 453.883 1168.39C455.039 1168.39 455.948 1168.76 456.609 1169.48C457.276 1170.21 457.609 1171.25 457.609 1172.59V1173.51H452.227C452.299 1174.06 452.518 1174.5 452.883 1174.84C453.253 1175.17 453.719 1175.34 454.281 1175.34C455.151 1175.34 455.831 1175.02 456.32 1174.39L457.43 1175.63C457.091 1176.11 456.633 1176.49 456.055 1176.76C455.477 1177.02 454.836 1177.16 454.133 1177.16ZM453.875 1170.22C453.427 1170.22 453.062 1170.37 452.781 1170.67C452.505 1170.97 452.328 1171.41 452.25 1171.97H455.391V1171.79C455.38 1171.29 455.245 1170.9 454.984 1170.63C454.724 1170.36 454.354 1170.22 453.875 1170.22ZM463.648 1170.66C463.341 1170.62 463.07 1170.6 462.836 1170.6C461.982 1170.6 461.422 1170.89 461.156 1171.47V1177H458.898V1168.55H461.031L461.094 1169.55C461.547 1168.78 462.174 1168.39 462.977 1168.39C463.227 1168.39 463.461 1168.42 463.68 1168.49L463.648 1170.66ZM471.43 1166.47V1168.55H472.875V1170.2H471.43V1174.42C471.43 1174.73 471.49 1174.96 471.609 1175.09C471.729 1175.23 471.958 1175.3 472.297 1175.3C472.547 1175.3 472.768 1175.28 472.961 1175.24V1176.95C472.518 1177.09 472.062 1177.16 471.594 1177.16C470.01 1177.16 469.203 1176.36 469.172 1174.76V1170.2H467.938V1168.55H469.172V1166.47H471.43ZM476.336 1169.47C476.935 1168.75 477.688 1168.39 478.594 1168.39C480.427 1168.39 481.357 1169.46 481.383 1171.59V1177H479.125V1171.65C479.125 1171.16 479.021 1170.81 478.812 1170.58C478.604 1170.34 478.258 1170.23 477.773 1170.23C477.112 1170.23 476.633 1170.48 476.336 1170.99V1177H474.078V1165H476.336V1169.47ZM486.977 1177.16C485.737 1177.16 484.727 1176.78 483.945 1176.02C483.169 1175.26 482.781 1174.24 482.781 1172.98V1172.76C482.781 1171.91 482.945 1171.15 483.273 1170.48C483.602 1169.81 484.065 1169.3 484.664 1168.94C485.268 1168.57 485.956 1168.39 486.727 1168.39C487.883 1168.39 488.792 1168.76 489.453 1169.48C490.12 1170.21 490.453 1171.25 490.453 1172.59V1173.51H485.07C485.143 1174.06 485.362 1174.5 485.727 1174.84C486.096 1175.17 486.562 1175.34 487.125 1175.34C487.995 1175.34 488.674 1175.02 489.164 1174.39L490.273 1175.63C489.935 1176.11 489.477 1176.49 488.898 1176.76C488.32 1177.02 487.68 1177.16 486.977 1177.16ZM486.719 1170.22C486.271 1170.22 485.906 1170.37 485.625 1170.67C485.349 1170.97 485.172 1171.41 485.094 1171.97H488.234V1171.79C488.224 1171.29 488.089 1170.9 487.828 1170.63C487.568 1170.36 487.198 1170.22 486.719 1170.22ZM500.477 1170.66C500.169 1170.62 499.898 1170.6 499.664 1170.6C498.81 1170.6 498.25 1170.89 497.984 1171.47V1177H495.727V1168.55H497.859L497.922 1169.55C498.375 1168.78 499.003 1168.39 499.805 1168.39C500.055 1168.39 500.289 1168.42 500.508 1168.49L500.477 1170.66ZM505.305 1177.16C504.065 1177.16 503.055 1176.78 502.273 1176.02C501.497 1175.26 501.109 1174.24 501.109 1172.98V1172.76C501.109 1171.91 501.273 1171.15 501.602 1170.48C501.93 1169.81 502.393 1169.3 502.992 1168.94C503.596 1168.57 504.284 1168.39 505.055 1168.39C506.211 1168.39 507.12 1168.76 507.781 1169.48C508.448 1170.21 508.781 1171.25 508.781 1172.59V1173.51H503.398C503.471 1174.06 503.69 1174.5 504.055 1174.84C504.424 1175.17 504.891 1175.34 505.453 1175.34C506.323 1175.34 507.003 1175.02 507.492 1174.39L508.602 1175.63C508.263 1176.11 507.805 1176.49 507.227 1176.76C506.648 1177.02 506.008 1177.16 505.305 1177.16ZM505.047 1170.22C504.599 1170.22 504.234 1170.37 503.953 1170.67C503.677 1170.97 503.5 1171.41 503.422 1171.97H506.562V1171.79C506.552 1171.29 506.417 1170.9 506.156 1170.63C505.896 1170.36 505.526 1170.22 505.047 1170.22ZM517.68 1172.85C517.68 1174.15 517.383 1175.2 516.789 1175.98C516.201 1176.77 515.404 1177.16 514.398 1177.16C513.544 1177.16 512.854 1176.86 512.328 1176.27V1180.25H510.07V1168.55H512.164L512.242 1169.38C512.789 1168.72 513.503 1168.39 514.383 1168.39C515.424 1168.39 516.234 1168.78 516.812 1169.55C517.391 1170.32 517.68 1171.38 517.68 1172.73V1172.85ZM515.422 1172.69C515.422 1171.9 515.281 1171.29 515 1170.87C514.724 1170.44 514.32 1170.23 513.789 1170.23C513.081 1170.23 512.594 1170.5 512.328 1171.04V1174.5C512.604 1175.06 513.096 1175.34 513.805 1175.34C514.883 1175.34 515.422 1174.45 515.422 1172.69ZM518.734 1172.7C518.734 1171.86 518.896 1171.11 519.219 1170.45C519.542 1169.8 520.005 1169.29 520.609 1168.93C521.219 1168.57 521.924 1168.39 522.727 1168.39C523.867 1168.39 524.797 1168.74 525.516 1169.44C526.24 1170.14 526.643 1171.08 526.727 1172.28L526.742 1172.86C526.742 1174.16 526.38 1175.2 525.656 1175.98C524.932 1176.77 523.961 1177.16 522.742 1177.16C521.523 1177.16 520.549 1176.77 519.82 1175.98C519.096 1175.2 518.734 1174.14 518.734 1172.8V1172.7ZM520.992 1172.86C520.992 1173.66 521.143 1174.28 521.445 1174.7C521.747 1175.12 522.18 1175.34 522.742 1175.34C523.289 1175.34 523.716 1175.13 524.023 1174.71C524.331 1174.29 524.484 1173.62 524.484 1172.7C524.484 1171.91 524.331 1171.3 524.023 1170.87C523.716 1170.43 523.284 1170.22 522.727 1170.22C522.174 1170.22 521.747 1170.43 521.445 1170.87C521.143 1171.29 520.992 1171.96 520.992 1172.86ZM532.711 1174.66C532.711 1174.39 532.573 1174.17 532.297 1174.02C532.026 1173.85 531.589 1173.71 530.984 1173.59C528.974 1173.16 527.969 1172.31 527.969 1171.02C527.969 1170.27 528.279 1169.65 528.898 1169.15C529.523 1168.64 530.339 1168.39 531.344 1168.39C532.417 1168.39 533.273 1168.64 533.914 1169.15C534.56 1169.65 534.883 1170.31 534.883 1171.12H532.625C532.625 1170.79 532.521 1170.53 532.312 1170.32C532.104 1170.11 531.779 1170 531.336 1170C530.956 1170 530.661 1170.09 530.453 1170.26C530.245 1170.43 530.141 1170.65 530.141 1170.91C530.141 1171.16 530.258 1171.37 530.492 1171.52C530.732 1171.67 531.133 1171.81 531.695 1171.92C532.258 1172.03 532.732 1172.16 533.117 1172.3C534.31 1172.73 534.906 1173.49 534.906 1174.57C534.906 1175.34 534.576 1175.97 533.914 1176.45C533.253 1176.92 532.398 1177.16 531.352 1177.16C530.643 1177.16 530.013 1177.03 529.461 1176.78C528.914 1176.53 528.484 1176.18 528.172 1175.74C527.859 1175.3 527.703 1174.82 527.703 1174.31H529.844C529.865 1174.71 530.013 1175.02 530.289 1175.23C530.565 1175.45 530.935 1175.55 531.398 1175.55C531.831 1175.55 532.156 1175.47 532.375 1175.31C532.599 1175.15 532.711 1174.93 532.711 1174.66ZM538.75 1177H536.484V1168.55H538.75V1177ZM536.352 1166.36C536.352 1166.02 536.464 1165.74 536.688 1165.52C536.917 1165.3 537.227 1165.2 537.617 1165.2C538.003 1165.2 538.31 1165.3 538.539 1165.52C538.768 1165.74 538.883 1166.02 538.883 1166.36C538.883 1166.7 538.766 1166.98 538.531 1167.2C538.302 1167.42 537.997 1167.53 537.617 1167.53C537.237 1167.53 536.93 1167.42 536.695 1167.2C536.466 1166.98 536.352 1166.7 536.352 1166.36ZM543.32 1166.47V1168.55H544.766V1170.2H543.32V1174.42C543.32 1174.73 543.38 1174.96 543.5 1175.09C543.62 1175.23 543.849 1175.3 544.188 1175.3C544.438 1175.3 544.659 1175.28 544.852 1175.24V1176.95C544.409 1177.09 543.953 1177.16 543.484 1177.16C541.901 1177.16 541.094 1176.36 541.062 1174.76V1170.2H539.828V1168.55H541.062V1166.47H543.32ZM545.438 1172.7C545.438 1171.86 545.599 1171.11 545.922 1170.45C546.245 1169.8 546.708 1169.29 547.312 1168.93C547.922 1168.57 548.628 1168.39 549.43 1168.39C550.57 1168.39 551.5 1168.74 552.219 1169.44C552.943 1170.14 553.346 1171.08 553.43 1172.28L553.445 1172.86C553.445 1174.16 553.083 1175.2 552.359 1175.98C551.635 1176.77 550.664 1177.16 549.445 1177.16C548.227 1177.16 547.253 1176.77 546.523 1175.98C545.799 1175.2 545.438 1174.14 545.438 1172.8V1172.7ZM547.695 1172.86C547.695 1173.66 547.846 1174.28 548.148 1174.7C548.451 1175.12 548.883 1175.34 549.445 1175.34C549.992 1175.34 550.419 1175.13 550.727 1174.71C551.034 1174.29 551.188 1173.62 551.188 1172.7C551.188 1171.91 551.034 1171.3 550.727 1170.87C550.419 1170.43 549.987 1170.22 549.43 1170.22C548.878 1170.22 548.451 1170.43 548.148 1170.87C547.846 1171.29 547.695 1171.96 547.695 1172.86ZM559.586 1170.66C559.279 1170.62 559.008 1170.6 558.773 1170.6C557.919 1170.6 557.359 1170.89 557.094 1171.47V1177H554.836V1168.55H556.969L557.031 1169.55C557.484 1168.78 558.112 1168.39 558.914 1168.39C559.164 1168.39 559.398 1168.42 559.617 1168.49L559.586 1170.66ZM563.977 1173.8L565.539 1168.55H567.961L564.562 1178.31L564.375 1178.76C563.87 1179.86 563.036 1180.41 561.875 1180.41C561.547 1180.41 561.214 1180.36 560.875 1180.27V1178.55L561.219 1178.56C561.646 1178.56 561.964 1178.5 562.172 1178.37C562.385 1178.24 562.552 1178.02 562.672 1177.72L562.938 1177.02L559.977 1168.55H562.406L563.977 1173.8ZM574.914 1168.55L574.984 1169.52C575.589 1168.77 576.398 1168.39 577.414 1168.39C578.31 1168.39 578.977 1168.65 579.414 1169.18C579.852 1169.71 580.076 1170.49 580.086 1171.54V1177H577.828V1171.59C577.828 1171.11 577.724 1170.77 577.516 1170.55C577.307 1170.34 576.961 1170.23 576.477 1170.23C575.841 1170.23 575.365 1170.5 575.047 1171.04V1177H572.789V1168.55H574.914ZM586.703 1177C586.599 1176.8 586.523 1176.54 586.477 1176.24C585.93 1176.85 585.219 1177.16 584.344 1177.16C583.516 1177.16 582.828 1176.92 582.281 1176.44C581.74 1175.96 581.469 1175.35 581.469 1174.62C581.469 1173.73 581.799 1173.04 582.461 1172.56C583.128 1172.08 584.089 1171.84 585.344 1171.84H586.383V1171.35C586.383 1170.96 586.281 1170.65 586.078 1170.41C585.88 1170.18 585.565 1170.06 585.133 1170.06C584.753 1170.06 584.453 1170.15 584.234 1170.34C584.021 1170.52 583.914 1170.77 583.914 1171.09H581.656C581.656 1170.6 581.807 1170.14 582.109 1169.73C582.411 1169.31 582.839 1168.98 583.391 1168.75C583.943 1168.51 584.562 1168.39 585.25 1168.39C586.292 1168.39 587.117 1168.65 587.727 1169.18C588.341 1169.7 588.648 1170.43 588.648 1171.38V1175.05C588.654 1175.85 588.766 1176.46 588.984 1176.87V1177H586.703ZM584.836 1175.43C585.169 1175.43 585.477 1175.36 585.758 1175.21C586.039 1175.06 586.247 1174.86 586.383 1174.61V1173.16H585.539C584.409 1173.16 583.807 1173.55 583.734 1174.33L583.727 1174.46C583.727 1174.74 583.826 1174.97 584.023 1175.16C584.221 1175.34 584.492 1175.43 584.836 1175.43ZM592.5 1168.55L592.57 1169.49C593.169 1168.76 593.979 1168.39 595 1168.39C596.089 1168.39 596.836 1168.82 597.242 1169.68C597.836 1168.82 598.682 1168.39 599.781 1168.39C600.698 1168.39 601.38 1168.66 601.828 1169.2C602.276 1169.73 602.5 1170.53 602.5 1171.6V1177H600.234V1171.61C600.234 1171.13 600.141 1170.78 599.953 1170.56C599.766 1170.34 599.435 1170.23 598.961 1170.23C598.284 1170.23 597.815 1170.55 597.555 1171.2L597.562 1177H595.305V1171.62C595.305 1171.13 595.208 1170.77 595.016 1170.55C594.823 1170.34 594.495 1170.23 594.031 1170.23C593.391 1170.23 592.927 1170.49 592.641 1171.02V1177H590.383V1168.55H592.5ZM608.133 1177.16C606.893 1177.16 605.883 1176.78 605.102 1176.02C604.326 1175.26 603.938 1174.24 603.938 1172.98V1172.76C603.938 1171.91 604.102 1171.15 604.43 1170.48C604.758 1169.81 605.221 1169.3 605.82 1168.94C606.424 1168.57 607.112 1168.39 607.883 1168.39C609.039 1168.39 609.948 1168.76 610.609 1169.48C611.276 1170.21 611.609 1171.25 611.609 1172.59V1173.51H606.227C606.299 1174.06 606.518 1174.5 606.883 1174.84C607.253 1175.17 607.719 1175.34 608.281 1175.34C609.151 1175.34 609.831 1175.02 610.32 1174.39L611.43 1175.63C611.091 1176.11 610.633 1176.49 610.055 1176.76C609.477 1177.02 608.836 1177.16 608.133 1177.16ZM607.875 1170.22C607.427 1170.22 607.062 1170.37 606.781 1170.67C606.505 1170.97 606.328 1171.41 606.25 1171.97H609.391V1171.79C609.38 1171.29 609.245 1170.9 608.984 1170.63C608.724 1170.36 608.354 1170.22 607.875 1170.22Z" fill="#A8A8B3"/>
<path d="M1125.62 1174.64C1125.62 1174.14 1125.44 1173.76 1125.09 1173.5C1124.74 1173.23 1124.11 1172.95 1123.19 1172.66C1122.28 1172.36 1121.55 1172.06 1121.02 1171.78C1119.57 1170.99 1118.84 1169.93 1118.84 1168.6C1118.84 1167.91 1119.04 1167.3 1119.42 1166.76C1119.81 1166.21 1120.37 1165.79 1121.1 1165.48C1121.83 1165.18 1122.65 1165.03 1123.56 1165.03C1124.48 1165.03 1125.29 1165.19 1126 1165.53C1126.72 1165.86 1127.27 1166.32 1127.67 1166.93C1128.06 1167.53 1128.26 1168.21 1128.26 1168.98H1125.63C1125.63 1168.4 1125.44 1167.94 1125.07 1167.62C1124.7 1167.29 1124.19 1167.13 1123.52 1167.13C1122.87 1167.13 1122.37 1167.27 1122.01 1167.54C1121.66 1167.81 1121.48 1168.17 1121.48 1168.61C1121.48 1169.03 1121.69 1169.38 1122.1 1169.66C1122.52 1169.94 1123.14 1170.2 1123.96 1170.45C1125.46 1170.9 1126.55 1171.46 1127.24 1172.13C1127.92 1172.8 1128.26 1173.63 1128.26 1174.62C1128.26 1175.73 1127.84 1176.6 1127.01 1177.24C1126.17 1177.86 1125.04 1178.18 1123.62 1178.18C1122.64 1178.18 1121.74 1178 1120.93 1177.64C1120.12 1177.28 1119.51 1176.78 1119.08 1176.15C1118.66 1175.53 1118.45 1174.8 1118.45 1173.97H1121.09C1121.09 1175.39 1121.94 1176.09 1123.62 1176.09C1124.25 1176.09 1124.74 1175.97 1125.09 1175.71C1125.44 1175.46 1125.62 1175.1 1125.62 1174.64ZM1134.27 1178.18C1132.87 1178.18 1131.74 1177.75 1130.86 1176.89C1129.98 1176.04 1129.55 1174.9 1129.55 1173.47V1173.23C1129.55 1172.27 1129.73 1171.42 1130.1 1170.67C1130.47 1169.91 1130.99 1169.33 1131.67 1168.93C1132.34 1168.52 1133.12 1168.31 1133.99 1168.31C1135.29 1168.31 1136.31 1168.72 1137.05 1169.54C1137.8 1170.37 1138.18 1171.53 1138.18 1173.03V1174.07H1132.12C1132.2 1174.69 1132.45 1175.19 1132.86 1175.57C1133.28 1175.94 1133.8 1176.13 1134.43 1176.13C1135.41 1176.13 1136.18 1175.77 1136.73 1175.06L1137.98 1176.46C1137.59 1177 1137.08 1177.42 1136.43 1177.73C1135.78 1178.03 1135.06 1178.18 1134.27 1178.18ZM1133.98 1170.37C1133.47 1170.37 1133.06 1170.54 1132.75 1170.88C1132.44 1171.22 1132.24 1171.71 1132.15 1172.34H1135.68V1172.14C1135.67 1171.58 1135.52 1171.14 1135.22 1170.84C1134.93 1170.53 1134.52 1170.37 1133.98 1170.37ZM1145.14 1178C1145.02 1177.77 1144.94 1177.49 1144.88 1177.15C1144.27 1177.83 1143.47 1178.18 1142.48 1178.18C1141.55 1178.18 1140.78 1177.91 1140.16 1177.37C1139.55 1176.83 1139.25 1176.15 1139.25 1175.33C1139.25 1174.32 1139.62 1173.55 1140.37 1173.01C1141.12 1172.47 1142.2 1172.2 1143.61 1172.19H1144.78V1171.65C1144.78 1171.21 1144.66 1170.85 1144.44 1170.59C1144.21 1170.33 1143.86 1170.2 1143.37 1170.2C1142.94 1170.2 1142.61 1170.3 1142.36 1170.5C1142.12 1170.71 1142 1170.99 1142 1171.35H1139.46C1139.46 1170.8 1139.63 1170.29 1139.97 1169.82C1140.31 1169.35 1140.79 1168.98 1141.41 1168.72C1142.03 1168.45 1142.73 1168.31 1143.5 1168.31C1144.68 1168.31 1145.6 1168.61 1146.29 1169.2C1146.98 1169.79 1147.33 1170.61 1147.33 1171.68V1175.8C1147.33 1176.71 1147.46 1177.39 1147.71 1177.85V1178H1145.14ZM1143.04 1176.23C1143.41 1176.23 1143.76 1176.15 1144.08 1175.99C1144.39 1175.82 1144.63 1175.59 1144.78 1175.31V1173.68H1143.83C1142.56 1173.68 1141.88 1174.12 1141.8 1174.99L1141.79 1175.14C1141.79 1175.46 1141.9 1175.72 1142.12 1175.93C1142.35 1176.13 1142.65 1176.23 1143.04 1176.23ZM1154.62 1170.87C1154.28 1170.83 1153.97 1170.8 1153.71 1170.8C1152.75 1170.8 1152.12 1171.13 1151.82 1171.78V1178H1149.28V1168.49H1151.68L1151.75 1169.62C1152.26 1168.75 1152.96 1168.31 1153.87 1168.31C1154.15 1168.31 1154.41 1168.35 1154.66 1168.43L1154.62 1170.87ZM1159.63 1176.13C1160.1 1176.13 1160.48 1176 1160.77 1175.74C1161.07 1175.48 1161.22 1175.14 1161.23 1174.71H1163.61C1163.61 1175.36 1163.43 1175.95 1163.09 1176.49C1162.74 1177.02 1162.27 1177.44 1161.66 1177.74C1161.06 1178.03 1160.4 1178.18 1159.68 1178.18C1158.32 1178.18 1157.24 1177.75 1156.46 1176.88C1155.67 1176.02 1155.28 1174.82 1155.28 1173.3V1173.13C1155.28 1171.67 1155.67 1170.5 1156.45 1169.62C1157.23 1168.75 1158.3 1168.31 1159.66 1168.31C1160.85 1168.31 1161.8 1168.65 1162.51 1169.33C1163.24 1170.01 1163.6 1170.91 1163.61 1172.03H1161.23C1161.22 1171.54 1161.07 1171.14 1160.77 1170.84C1160.48 1170.53 1160.09 1170.37 1159.61 1170.37C1159.02 1170.37 1158.57 1170.59 1158.27 1171.02C1157.97 1171.45 1157.82 1172.15 1157.82 1173.11V1173.38C1157.82 1174.36 1157.97 1175.06 1158.27 1175.49C1158.57 1175.91 1159.02 1176.13 1159.63 1176.13ZM1167.54 1169.53C1168.22 1168.72 1169.06 1168.31 1170.08 1168.31C1172.14 1168.31 1173.19 1169.51 1173.22 1171.91V1178H1170.68V1171.98C1170.68 1171.43 1170.56 1171.03 1170.33 1170.78C1170.09 1170.51 1169.7 1170.38 1169.16 1170.38C1168.42 1170.38 1167.88 1170.67 1167.54 1171.24V1178H1165V1164.5H1167.54V1169.53Z" fill="white"/>
<path d="M467.407 792.154C467.407 789.447 468.041 787.288 469.311 785.676C470.59 784.054 472.284 783.243 474.393 783.243C476.382 783.243 477.947 783.936 479.087 785.322L479.265 783.565H482.798V800.468C482.798 802.756 482.083 804.561 480.652 805.882C479.233 807.204 477.313 807.864 474.893 807.864C473.613 807.864 472.36 807.596 471.134 807.059C469.918 806.532 468.993 805.839 468.359 804.98L470.214 802.627C471.419 804.056 472.903 804.771 474.667 804.771C475.968 804.771 476.996 804.416 477.748 803.707C478.501 803.009 478.878 801.977 478.878 800.613V799.437C477.748 800.694 476.243 801.322 474.36 801.322C472.317 801.322 470.644 800.511 469.343 798.889C468.052 797.267 467.407 795.022 467.407 792.154ZM471.311 792.492C471.311 794.243 471.666 795.623 472.376 796.633C473.097 797.632 474.091 798.132 475.361 798.132C476.942 798.132 478.114 797.455 478.878 796.102V788.432C478.136 787.11 476.974 786.45 475.393 786.45C474.102 786.45 473.097 786.96 472.376 787.98C471.666 789.001 471.311 790.505 471.311 792.492ZM491.01 801H487.09V783.565H491.01V801ZM486.848 779.038C486.848 778.436 487.036 777.937 487.413 777.539C487.8 777.142 488.348 776.943 489.058 776.943C489.768 776.943 490.317 777.142 490.704 777.539C491.091 777.937 491.285 778.436 491.285 779.038C491.285 779.628 491.091 780.123 490.704 780.52C490.317 780.907 489.768 781.1 489.058 781.1C488.348 781.1 487.8 780.907 487.413 780.52C487.036 780.123 486.848 779.628 486.848 779.038ZM500.207 779.328V783.565H503.288V786.466H500.207V796.198C500.207 796.864 500.336 797.348 500.594 797.648C500.863 797.938 501.336 798.083 502.014 798.083C502.465 798.083 502.922 798.03 503.385 797.922V800.952C502.492 801.199 501.632 801.322 500.804 801.322C497.792 801.322 496.286 799.663 496.286 796.343V786.466H493.414V783.565H496.286V779.328H500.207ZM510.161 785.467C511.441 783.984 513.06 783.243 515.017 783.243C518.739 783.243 520.626 785.365 520.68 789.608V801H516.76V789.753C516.76 788.55 516.496 787.701 515.969 787.207C515.453 786.702 514.689 786.45 513.678 786.45C512.108 786.45 510.935 787.148 510.161 788.544V801H506.241V776.25H510.161V785.467ZM535.233 799.292C534.082 800.646 532.447 801.322 530.328 801.322C528.435 801.322 526.999 800.769 526.021 799.663C525.052 798.556 524.569 796.956 524.569 794.861V783.565H528.489V794.812C528.489 797.025 529.409 798.132 531.248 798.132C533.152 798.132 534.437 797.45 535.104 796.085V783.565H539.024V801H535.33L535.233 799.292ZM558.337 792.46C558.337 795.167 557.728 797.321 556.514 798.921C555.309 800.522 553.647 801.322 551.527 801.322C549.484 801.322 547.893 800.586 546.753 799.115L546.559 801H543.009V776.25H546.93V785.241C548.059 783.909 549.581 783.243 551.496 783.243C553.625 783.243 555.298 784.033 556.514 785.612C557.728 787.191 558.337 789.398 558.337 792.234V792.46ZM554.416 792.122C554.416 790.231 554.082 788.813 553.416 787.868C552.748 786.922 551.781 786.45 550.511 786.45C548.812 786.45 547.619 787.191 546.93 788.673V795.86C547.628 797.375 548.833 798.132 550.544 798.132C551.77 798.132 552.717 797.675 553.383 796.762C554.051 795.849 554.395 794.469 554.416 792.621V792.122Z" fill="#737380"/>
<path d="M574.471 804.078H559.675V801H574.471V804.078ZM584.23 801.322C581.747 801.322 579.73 800.544 578.181 798.986C576.643 797.417 575.874 795.333 575.874 792.734V792.25C575.874 790.51 576.207 788.958 576.874 787.594C577.552 786.219 578.498 785.15 579.713 784.387C580.929 783.625 582.284 783.243 583.779 783.243C586.156 783.243 587.99 784 589.28 785.515C590.583 787.03 591.233 789.173 591.233 791.944V793.523H579.826C579.945 794.963 580.424 796.102 581.262 796.939C582.112 797.777 583.177 798.196 584.456 798.196C586.253 798.196 587.716 797.471 588.845 796.021L590.959 798.035C590.259 799.077 589.324 799.888 588.151 800.468C586.989 801.038 585.683 801.322 584.23 801.322ZM583.764 786.385C582.687 786.385 581.816 786.761 581.149 787.513C580.494 788.265 580.074 789.313 579.891 790.655H587.361V790.365C587.274 789.055 586.925 788.066 586.312 787.4C585.699 786.724 584.85 786.385 583.764 786.385ZM600.559 789.302L603.882 783.565H608.238L602.898 792.154L608.416 801H604.091L600.607 795.038L597.137 801H592.781L598.299 792.154L592.975 783.565H597.3L600.559 789.302ZM626.195 792.46C626.195 795.156 625.582 797.31 624.356 798.921C623.129 800.522 621.484 801.322 619.419 801.322C617.504 801.322 615.971 800.694 614.82 799.437V807.703H610.901V783.565H614.513L614.676 785.338C615.827 783.941 617.391 783.243 619.37 783.243C621.5 783.243 623.168 784.038 624.372 785.628C625.586 787.207 626.195 789.404 626.195 792.218V792.46ZM622.291 792.122C622.291 790.381 621.941 789.001 621.241 787.98C620.553 786.96 619.563 786.45 618.273 786.45C616.671 786.45 615.52 787.11 614.82 788.432V796.166C615.531 797.52 616.693 798.196 618.305 798.196C619.554 798.196 620.527 797.697 621.226 796.698C621.935 795.688 622.291 794.163 622.291 792.122ZM633.697 801H629.776V776.25H633.697V801ZM637.246 792.122C637.246 790.414 637.585 788.877 638.262 787.513C638.941 786.138 639.892 785.085 641.119 784.355C642.344 783.614 643.754 783.243 645.345 783.243C647.701 783.243 649.611 784 651.073 785.515C652.547 787.03 653.343 789.039 653.461 791.542L653.477 792.46C653.477 794.179 653.143 795.715 652.477 797.068C651.82 798.422 650.874 799.469 649.637 800.21C648.411 800.952 646.991 801.322 645.377 801.322C642.914 801.322 640.941 800.506 639.457 798.873C637.983 797.229 637.246 795.043 637.246 792.315V792.122ZM641.167 792.46C641.167 794.254 641.537 795.661 642.279 796.682C643.023 797.691 644.055 798.196 645.377 798.196C646.7 798.196 647.729 797.681 648.46 796.649C649.202 795.618 649.572 794.109 649.572 792.122C649.572 790.36 649.191 788.963 648.427 787.932C647.674 786.901 646.646 786.385 645.345 786.385C644.065 786.385 643.049 786.896 642.296 787.916C641.543 788.926 641.167 790.44 641.167 792.46ZM665.932 787.143C665.416 787.057 664.883 787.014 664.335 787.014C662.538 787.014 661.328 787.701 660.704 789.076V801H656.785V783.565H660.527L660.625 785.515C661.57 784 662.882 783.243 664.561 783.243C665.12 783.243 665.582 783.318 665.948 783.469L665.932 787.143ZM675.774 801.322C673.289 801.322 671.272 800.544 669.723 798.986C668.186 797.417 667.416 795.333 667.416 792.734V792.25C667.416 790.51 667.749 788.958 668.417 787.594C669.094 786.219 670.041 785.15 671.256 784.387C672.471 783.625 673.828 783.243 675.321 783.243C677.699 783.243 679.533 784 680.824 785.515C682.125 787.03 682.776 789.173 682.776 791.944V793.523H671.369C671.487 794.963 671.966 796.102 672.805 796.939C673.655 797.777 674.72 798.196 676 798.196C677.795 798.196 679.259 797.471 680.388 796.021L682.501 798.035C681.803 799.077 680.867 799.888 679.694 800.468C678.532 801.038 677.225 801.322 675.774 801.322ZM675.306 786.385C674.231 786.385 673.359 786.761 672.692 787.513C672.036 788.265 671.617 789.313 671.433 790.655H678.904V790.365C678.818 789.055 678.469 788.066 677.855 787.4C677.242 786.724 676.392 786.385 675.306 786.385ZM694.973 787.143C694.457 787.057 693.924 787.014 693.376 787.014C691.579 787.014 690.369 787.701 689.745 789.076V801H685.824V783.565H689.568L689.664 785.515C690.611 784 691.923 783.243 693.602 783.243C694.161 783.243 694.623 783.318 694.99 783.469L694.973 787.143Z" fill="#A8A8B3"/>
<path fill-rule="evenodd" clip-rule="evenodd" d="M400 790C400 777.845 409.858 768 422.028 768C434.198 768 444.056 777.845 444.056 790C444.056 802.144 434.198 812 422.028 812C409.858 812 400 802.144 400 790ZM408.811 803.2L426.852 794.818L435.245 776.8L417.204 785.182L408.811 803.2ZM424.451 790C424.451 791.331 423.371 792.42 422.028 792.42C420.695 792.42 419.605 791.331 419.605 790C419.605 788.669 420.695 787.58 422.028 787.58C423.372 787.58 424.451 788.669 424.451 790Z" fill="#121214"/>
</g>
</g>
<defs>
<linearGradient id="paint0_linear" x1="1114" y1="701" x2="1114" y2="1563" gradientUnits="userSpaceOnUse">
<stop stop-color="#121214"/>
<stop offset="1" stop-color="#121214" stop-opacity="0"/>
</linearGradient>
<clipPath id="clip0">
<rect width="1920" height="1348" fill="white"/>
</clipPath>
<clipPath id="clip1">
<rect x="240" y="722" width="1440" height="820" rx="20" fill="white"/>
</clipPath>
</defs>
</svg>
